<?xml version="1.0" encoding="UTF-8"?>
<svg xmlns="http://www.w3.org/2000/svg" xmlns:xlink="http://www.w3.org/1999/xlink" viewBox="0 0 48 48" version="1.1" width="96px" height="96px">
<g id="surface1">
<path style=" fill:#2196F3;" d="M 34.398438 6.058594 C 34.933594 5.945313 35.421875 5.84375 35.910156 5.734375 C 35.949219 5.726563 36.007813 5.664063 36.007813 5.628906 C 36.011719 5.089844 36.011719 4.550781 36.011719 4 C 35.5 4.117188 35.019531 4.222656 34.539063 4.34375 C 34.484375 4.355469 34.40625 4.4375 34.40625 4.488281 C 34.394531 4.996094 34.398438 5.507813 34.398438 6.058594 Z "/>
<path style=" fill:#2196F3;" d="M 36.011719 44 C 36.011719 43.449219 36.015625 42.917969 36.007813 42.382813 C 36.003906 42.339844 35.914063 42.269531 35.855469 42.253906 C 35.546875 42.179688 35.238281 42.117188 34.925781 42.054688 C 34.757813 42.019531 34.589844 41.984375 34.398438 41.949219 C 34.398438 42.488281 34.394531 42.992188 34.402344 43.492188 C 34.402344 43.546875 34.457031 43.636719 34.5 43.648438 C 34.992188 43.769531 35.488281 43.878906 36.011719 44 Z "/>
<path style=" fill:#2196F3;" d="M 33.996094 6.140625 C 33.996094 5.558594 33.996094 5.019531 33.996094 4.464844 C 33.632813 4.539063 33.285156 4.609375 32.941406 4.679688 C 32.386719 4.796875 32.386719 4.800781 32.386719 5.378906 C 32.386719 5.726563 32.386719 6.074219 32.386719 6.445313 C 32.949219 6.339844 33.46875 6.242188 33.996094 6.140625 Z "/>
<path style=" fill:#2196F3;" d="M 32.386719 41.554688 C 32.386719 42.101563 32.386719 42.597656 32.390625 43.09375 C 32.394531 43.136719 32.445313 43.214844 32.484375 43.222656 C 32.984375 43.332031 33.484375 43.429688 33.996094 43.535156 C 33.996094 42.96875 33.996094 42.421875 33.996094 41.859375 C 33.464844 41.757813 32.941406 41.660156 32.386719 41.554688 Z "/>
<path style=" fill:#2196F3;" d="M 30.390625 6.785156 C 30.902344 6.699219 31.375 6.625 31.847656 6.539063 C 31.902344 6.53125 31.992188 6.457031 31.992188 6.410156 C 32.003906 5.90625 32 5.40625 32 4.875 C 31.472656 4.96875 30.96875 5.058594 30.46875 5.152344 C 30.4375 5.160156 30.394531 5.230469 30.394531 5.273438 C 30.386719 5.765625 30.390625 6.261719 30.390625 6.785156 Z "/>
<path style=" fill:#2196F3;" d="M 29.992188 41.152344 C 29.453125 41.074219 28.925781 41 28.394531 40.921875 C 28.394531 41.464844 28.394531 41.988281 28.394531 42.511719 C 28.933594 42.597656 29.457031 42.679688 29.992188 42.765625 C 29.992188 42.21875 29.992188 41.703125 29.992188 41.152344 Z "/>
<path style=" fill:#2196F3;" d="M 24.3125 7.539063 C 24.832031 7.488281 25.335938 7.441406 25.839844 7.386719 C 25.878906 7.382813 25.941406 7.320313 25.941406 7.285156 C 25.945313 6.804688 25.945313 6.320313 25.945313 5.816406 C 25.378906 5.878906 24.84375 5.9375 24.3125 5.992188 C 24.3125 6.515625 24.3125 7.015625 24.3125 7.539063 Z "/>
<path style=" fill:#2196F3;" d="M 23.902344 41.964844 C 23.902344 41.613281 23.902344 41.285156 23.902344 40.957031 C 23.902344 40.4375 23.902344 40.4375 23.394531 40.386719 C 23.027344 40.351563 22.660156 40.324219 22.28125 40.296875 C 22.28125 40.820313 22.28125 41.3125 22.28125 41.828125 C 22.816406 41.875 23.347656 41.917969 23.902344 41.964844 Z "/>
<path style=" fill:#2196F3;" d="M 23.890625 6.03125 C 23.335938 6.082031 22.808594 6.128906 22.28125 6.171875 C 22.28125 6.691406 22.28125 7.183594 22.28125 7.699219 C 22.824219 7.660156 23.351563 7.617188 23.890625 7.578125 C 23.890625 7.058594 23.890625 6.558594 23.890625 6.03125 Z "/>
<path style=" fill:#2196F3;" d="M 26.347656 42.234375 C 26.886719 42.304688 27.414063 42.375 27.953125 42.445313 C 27.953125 41.90625 27.953125 41.390625 27.953125 40.863281 C 27.414063 40.796875 26.890625 40.734375 26.347656 40.667969 C 26.347656 41.203125 26.347656 41.703125 26.347656 42.234375 Z "/>
<path style=" fill:#2196F3;" d="M 27.953125 5.550781 C 27.40625 5.625 26.878906 5.695313 26.355469 5.765625 C 26.355469 6.300781 26.355469 6.804688 26.355469 7.332031 C 26.898438 7.265625 27.425781 7.199219 27.953125 7.136719 C 27.953125 6.597656 27.953125 6.082031 27.953125 5.550781 Z "/>
<path style=" fill:#2196F3;" d="M 20.246094 6.296875 C 20.246094 6.816406 20.246094 7.3125 20.246094 7.824219 C 20.796875 7.789063 21.324219 7.761719 21.855469 7.726563 C 21.855469 7.210938 21.855469 6.714844 21.855469 6.203125 C 21.3125 6.234375 20.789063 6.265625 20.246094 6.296875 Z "/>
<path style=" fill:#2196F3;" d="M 21.855469 40.269531 C 21.300781 40.238281 20.773438 40.210938 20.222656 40.183594 C 20.222656 40.667969 20.21875 41.121094 20.230469 41.574219 C 20.230469 41.625 20.328125 41.703125 20.386719 41.710938 C 20.625 41.738281 20.863281 41.746094 21.101563 41.757813 C 21.355469 41.769531 21.605469 41.78125 21.855469 41.792969 C 21.855469 41.277344 21.855469 40.785156 21.855469 40.269531 Z "/>
<path style=" fill:#2196F3;" d="M 16.164063 41.59375 C 16.707031 41.59375 17.234375 41.59375 17.773438 41.59375 C 17.773438 41.105469 17.773438 40.613281 17.773438 40.101563 C 17.234375 40.101563 16.707031 40.101563 16.164063 40.101563 C 16.164063 40.582031 16.164063 41.066406 16.164063 41.59375 Z "/>
<path style=" fill:#2196F3;" d="M 18.203125 41.644531 C 18.757813 41.644531 19.285156 41.644531 19.8125 41.644531 C 19.8125 41.152344 19.8125 40.667969 19.8125 40.148438 C 19.273438 40.148438 18.742188 40.148438 18.203125 40.148438 C 18.203125 40.628906 18.203125 41.113281 18.203125 41.644531 Z "/>
<path style=" fill:#2196F3;" d="M 17.773438 7.898438 C 17.773438 7.378906 17.773438 6.890625 17.773438 6.40625 C 17.230469 6.40625 16.703125 6.40625 16.171875 6.40625 C 16.171875 6.921875 16.171875 7.410156 16.171875 7.898438 C 16.714844 7.898438 17.238281 7.898438 17.773438 7.898438 Z "/>
<path style=" fill:#2196F3;" d="M 14.117188 7.898438 C 14.65625 7.898438 15.1875 7.898438 15.722656 7.898438 C 15.722656 7.402344 15.722656 6.914063 15.722656 6.402344 C 15.179688 6.402344 14.648438 6.402344 14.117188 6.402344 C 14.117188 6.90625 14.117188 7.390625 14.117188 7.898438 Z "/>
<path style=" fill:#2196F3;" d="M 36.007813 8.007813 C 35.457031 8.109375 34.929688 8.210938 34.417969 8.304688 C 34.417969 8.816406 34.417969 9.289063 34.417969 9.792969 C 34.960938 9.699219 35.480469 9.613281 36.007813 9.523438 C 36.007813 9.015625 36.007813 8.53125 36.007813 8.007813 Z "/>
<path style=" fill:#2196F3;" d="M 34.398438 38.203125 C 34.398438 38.5 34.394531 38.75 34.398438 39 C 34.402344 39.226563 34.335938 39.511719 34.445313 39.660156 C 34.546875 39.789063 34.839844 39.773438 35.050781 39.816406 C 35.363281 39.878906 35.679688 39.933594 35.996094 39.988281 C 35.996094 39.460938 35.996094 38.972656 35.996094 38.472656 C 35.46875 38.382813 34.953125 38.296875 34.398438 38.203125 Z "/>
<path style=" fill:#2196F3;" d="M 37.996094 38.84375 C 37.46875 38.746094 36.953125 38.648438 36.425781 38.550781 C 36.425781 39.070313 36.425781 39.566406 36.425781 40.074219 C 36.949219 40.183594 37.46875 40.289063 37.996094 40.398438 C 37.996094 39.875 37.996094 39.371094 37.996094 38.84375 Z "/>
<path style=" fill:#2196F3;" d="M 36.429688 9.449219 C 36.964844 9.347656 37.484375 9.25 37.996094 9.152344 C 37.996094 8.613281 37.996094 8.113281 37.996094 7.597656 C 37.464844 7.707031 36.945313 7.816406 36.429688 7.925781 C 36.429688 8.441406 36.429688 8.933594 36.429688 9.449219 Z "/>
<path style=" fill:#2196F3;" d="M 37.992188 5.648438 C 37.496094 5.761719 37.007813 5.871094 36.519531 5.992188 C 36.480469 6 36.421875 6.058594 36.421875 6.089844 C 36.414063 6.566406 36.417969 7.046875 36.417969 7.539063 C 36.960938 7.421875 37.472656 7.3125 37.996094 7.203125 C 37.992188 6.691406 37.992188 6.1875 37.992188 5.648438 Z "/>
<path style=" fill:#2196F3;" d="M 32.398438 10.101563 C 32.945313 10.019531 33.46875 9.9375 33.992188 9.859375 C 33.992188 9.359375 33.992188 8.878906 33.992188 8.378906 C 33.449219 8.46875 32.925781 8.554688 32.398438 8.640625 C 32.398438 9.128906 32.398438 9.597656 32.398438 10.101563 Z "/>
<path style=" fill:#2196F3;" d="M 33.988281 39.617188 C 33.988281 39.105469 33.988281 38.625 33.988281 38.136719 C 33.453125 38.058594 32.933594 37.980469 32.402344 37.898438 C 32.402344 38.394531 32.402344 38.871094 32.402344 39.355469 C 32.929688 39.445313 33.449219 39.53125 33.988281 39.617188 Z "/>
<path style=" fill:#2196F3;" d="M 33.992188 41.480469 C 33.992188 40.980469 33.992188 40.496094 33.992188 40 C 33.460938 39.910156 32.9375 39.820313 32.398438 39.730469 C 32.398438 40.226563 32.398438 40.699219 32.398438 41.1875 C 32.933594 41.285156 33.453125 41.382813 33.992188 41.480469 Z "/>
<path style=" fill:#2196F3;" d="M 33.996094 6.519531 C 33.496094 6.609375 33.011719 6.699219 32.527344 6.796875 C 32.476563 6.804688 32.394531 6.871094 32.394531 6.910156 C 32.382813 7.355469 32.386719 7.800781 32.386719 8.273438 C 32.945313 8.179688 33.46875 8.089844 33.996094 8 C 33.996094 7.496094 33.996094 7.011719 33.996094 6.519531 Z "/>
<path style=" fill:#2196F3;" d="M 25.929688 40.269531 C 25.929688 39.789063 25.929688 39.347656 25.929688 38.890625 C 25.382813 38.839844 24.847656 38.792969 24.3125 38.746094 C 24.3125 39.222656 24.3125 39.660156 24.3125 40.109375 C 24.851563 40.164063 25.382813 40.21875 25.929688 40.269531 Z "/>
<path style=" fill:#2196F3;" d="M 24.308594 38.398438 C 24.859375 38.445313 25.394531 38.492188 25.917969 38.535156 C 25.933594 38.492188 25.941406 38.476563 25.941406 38.464844 C 25.945313 38.195313 25.945313 37.929688 25.945313 37.660156 C 25.945313 37.171875 25.945313 37.171875 25.476563 37.128906 C 25.433594 37.125 25.386719 37.113281 25.339844 37.109375 C 24.996094 37.085938 24.65625 37.0625 24.304688 37.039063 C 24.308594 37.507813 24.308594 37.9375 24.308594 38.398438 Z "/>
<path style=" fill:#2196F3;" d="M 8.011719 11.347656 C 8.011719 11.8125 8.011719 12.25 8.011719 12.707031 C 8.554688 12.738281 9.082031 12.765625 9.617188 12.796875 C 9.617188 12.328125 9.617188 11.890625 9.617188 11.4375 C 9.078125 11.410156 8.550781 11.378906 8.011719 11.347656 Z "/>
<path style=" fill:#2196F3;" d="M 8.011719 38.367188 C 8.558594 38.328125 9.085938 38.289063 9.617188 38.253906 C 9.617188 37.796875 9.617188 37.359375 9.617188 36.902344 C 9.078125 36.9375 8.550781 36.96875 8.011719 37.003906 C 8.011719 37.460938 8.011719 37.898438 8.011719 38.367188 Z "/>
<path style=" fill:#2196F3;" d="M 8 14.808594 C 8 15.203125 7.996094 15.617188 8.007813 16.03125 C 8.007813 16.066406 8.085938 16.132813 8.125 16.132813 C 8.617188 16.140625 9.109375 16.136719 9.613281 16.136719 C 9.613281 15.726563 9.613281 15.285156 9.613281 14.808594 C 9.074219 14.808594 8.550781 14.808594 8 14.808594 Z "/>
<path style=" fill:#2196F3;" d="M 8.011719 17.855469 C 8.558594 17.855469 9.078125 17.855469 9.617188 17.855469 C 9.617188 17.425781 9.617188 16.980469 9.617188 16.507813 C 9.074219 16.507813 8.550781 16.507813 8.011719 16.507813 C 8.011719 16.933594 8.011719 17.371094 8.011719 17.855469 Z "/>
<path style=" fill:#2196F3;" d="M 9.621094 35.203125 C 9.070313 35.234375 8.542969 35.265625 8.015625 35.292969 C 8.015625 35.761719 8.015625 36.199219 8.015625 36.65625 C 8.558594 36.621094 9.085938 36.589844 9.621094 36.554688 C 9.621094 36.101563 9.621094 35.671875 9.621094 35.203125 Z "/>
<path style=" fill:#2196F3;" d="M 9.621094 19.914063 C 9.070313 19.914063 8.550781 19.914063 8.015625 19.914063 C 8.015625 20.359375 8.015625 20.800781 8.015625 21.261719 C 8.5625 21.261719 9.089844 21.261719 9.621094 21.261719 C 9.621094 20.808594 9.621094 20.382813 9.621094 19.914063 Z "/>
<path style=" fill:#2196F3;" d="M 9.621094 26.75 C 9.070313 26.75 8.542969 26.75 8.015625 26.75 C 8.015625 27.214844 8.015625 27.65625 8.015625 28.070313 C 8.5625 28.070313 9.089844 28.070313 9.621094 28.070313 C 9.621094 27.609375 9.621094 27.1875 9.621094 26.75 Z "/>
<path style=" fill:#2196F3;" d="M 8.011719 29.777344 C 8.554688 29.777344 9.082031 29.777344 9.617188 29.777344 C 9.617188 29.308594 9.617188 28.871094 9.617188 28.449219 C 9.074219 28.449219 8.546875 28.449219 8.011719 28.449219 C 8.011719 28.917969 8.011719 29.355469 8.011719 29.777344 Z "/>
<path style=" fill:#2196F3;" d="M 17.78125 9.9375 C 17.230469 9.9375 16.699219 9.9375 16.171875 9.9375 C 16.171875 10.390625 16.171875 10.824219 16.171875 11.246094 C 16.71875 11.246094 17.246094 11.246094 17.78125 11.246094 C 17.78125 10.800781 17.78125 10.375 17.78125 9.9375 Z "/>
<path style=" fill:#2196F3;" d="M 15.726563 9.933594 C 15.183594 9.933594 14.652344 9.933594 14.117188 9.933594 C 14.117188 10.375 14.117188 10.804688 14.117188 11.253906 C 14.65625 11.253906 15.1875 11.253906 15.726563 11.253906 C 15.726563 10.820313 15.726563 10.390625 15.726563 9.933594 Z "/>
<path style=" fill:#2196F3;" d="M 14.121094 19.628906 C 14.664063 19.628906 15.191406 19.628906 15.726563 19.628906 C 15.726563 19.179688 15.726563 18.746094 15.726563 18.3125 C 15.179688 18.3125 14.652344 18.3125 14.121094 18.3125 C 14.121094 18.761719 14.121094 19.1875 14.121094 19.628906 Z "/>
<path style=" fill:#2196F3;" d="M 14.117188 29.683594 C 14.671875 29.683594 15.199219 29.683594 15.730469 29.683594 C 15.730469 29.234375 15.730469 28.804688 15.730469 28.371094 C 15.1875 28.371094 14.660156 28.371094 14.117188 28.371094 C 14.117188 28.820313 14.117188 29.25 14.117188 29.683594 Z "/>
<path style=" fill:#2196F3;" d="M 13.6875 21.65625 C 13.140625 21.65625 12.609375 21.65625 12.074219 21.65625 C 12.074219 22.101563 12.074219 22.53125 12.074219 22.976563 C 12.617188 22.976563 13.144531 22.976563 13.6875 22.976563 C 13.6875 22.539063 13.6875 22.105469 13.6875 21.65625 Z "/>
<path style=" fill:#2196F3;" d="M 14.125 21.664063 C 14.125 22.113281 14.125 22.546875 14.125 22.976563 C 14.671875 22.976563 15.203125 22.976563 15.730469 22.976563 C 15.730469 22.53125 15.730469 22.101563 15.730469 21.664063 C 15.1875 21.664063 14.65625 21.664063 14.125 21.664063 Z "/>
<path style=" fill:#2196F3;" d="M 10.042969 21.277344 C 10.582031 21.277344 11.109375 21.277344 11.640625 21.277344 C 11.640625 20.839844 11.640625 20.40625 11.640625 19.953125 C 11.101563 19.953125 10.574219 19.953125 10.042969 19.953125 C 10.042969 20.394531 10.042969 20.824219 10.042969 21.277344 Z "/>
<path style=" fill:#2196F3;" d="M 13.683594 25.027344 C 13.136719 25.027344 12.605469 25.027344 12.070313 25.027344 C 12.070313 25.476563 12.070313 25.90625 12.070313 26.34375 C 12.609375 26.34375 13.140625 26.34375 13.683594 26.34375 C 13.683594 25.902344 13.683594 25.472656 13.683594 25.027344 Z "/>
<path style=" fill:#2196F3;" d="M 15.734375 25.023438 C 15.183594 25.023438 14.65625 25.023438 14.128906 25.023438 C 14.128906 25.472656 14.128906 25.90625 14.128906 26.335938 C 14.675781 26.335938 15.203125 26.335938 15.734375 26.335938 C 15.734375 25.894531 15.734375 25.46875 15.734375 25.023438 Z "/>
<path style=" fill:#2196F3;" d="M 11.644531 26.726563 C 11.09375 26.726563 10.570313 26.726563 10.042969 26.726563 C 10.042969 27.183594 10.042969 27.613281 10.042969 28.042969 C 10.582031 28.042969 11.109375 28.042969 11.644531 28.042969 C 11.644531 27.589844 11.644531 27.160156 11.644531 26.726563 Z "/>
<path style=" fill:#2196F3;" d="M 11.640625 24.671875 C 11.640625 24.222656 11.640625 23.785156 11.640625 23.34375 C 11.101563 23.34375 10.574219 23.34375 10.046875 23.34375 C 10.046875 23.792969 10.046875 24.230469 10.046875 24.671875 C 10.589844 24.671875 11.109375 24.671875 11.640625 24.671875 Z "/>
<path style=" fill:#2196F3;" d="M 10.042969 29.730469 C 10.582031 29.730469 11.109375 29.730469 11.640625 29.730469 C 11.640625 29.269531 11.640625 28.839844 11.640625 28.421875 C 11.097656 28.421875 10.570313 28.421875 10.042969 28.421875 C 10.042969 28.882813 10.042969 29.308594 10.042969 29.730469 Z "/>
<path style=" fill:#2196F3;" d="M 10.042969 38.230469 C 10.582031 38.203125 11.109375 38.179688 11.636719 38.152344 C 11.636719 37.695313 11.636719 37.265625 11.636719 36.808594 C 11.097656 36.832031 10.570313 36.855469 10.042969 36.882813 C 10.042969 37.34375 10.042969 37.777344 10.042969 38.230469 Z "/>
<path style=" fill:#2196F3;" d="M 13.6875 33.429688 C 13.136719 33.429688 12.605469 33.429688 12.078125 33.429688 C 12.078125 33.894531 12.078125 34.328125 12.078125 34.734375 C 12.628906 34.734375 13.15625 34.734375 13.6875 34.734375 C 13.6875 34.277344 13.6875 33.855469 13.6875 33.429688 Z "/>
<path style=" fill:#2196F3;" d="M 10.042969 12.835938 C 10.585938 12.835938 11.113281 12.835938 11.632813 12.835938 C 11.632813 12.410156 11.632813 11.972656 11.632813 11.503906 C 11.09375 11.503906 10.574219 11.503906 10.042969 11.503906 C 10.042969 11.921875 10.042969 12.351563 10.042969 12.835938 Z "/>
<path style=" fill:#2196F3;" d="M 12.074219 31.378906 C 12.625 31.378906 13.152344 31.378906 13.683594 31.378906 C 13.683594 30.921875 13.683594 30.492188 13.683594 30.070313 C 13.140625 30.070313 12.613281 30.070313 12.074219 30.070313 C 12.074219 30.523438 12.074219 30.949219 12.074219 31.378906 Z "/>
<path style=" fill:#2196F3;" d="M 11.640625 31.789063 C 11.101563 31.789063 10.574219 31.789063 10.046875 31.789063 C 10.046875 32.261719 10.046875 32.699219 10.046875 33.109375 C 10.585938 33.109375 11.113281 33.109375 11.640625 33.109375 C 11.640625 32.636719 11.640625 32.210938 11.640625 31.789063 Z "/>
<path style=" fill:#2196F3;" d="M 16.164063 38.066406 C 16.71875 38.066406 17.246094 38.066406 17.769531 38.066406 C 17.769531 37.621094 17.769531 37.191406 17.769531 36.75 C 17.226563 36.75 16.699219 36.75 16.164063 36.75 C 16.164063 37.191406 16.164063 37.621094 16.164063 38.066406 Z "/>
<path style=" fill:#2196F3;" d="M 14.121094 36.75 C 14.121094 37.214844 14.121094 37.640625 14.121094 38.0625 C 14.667969 38.0625 15.195313 38.0625 15.730469 38.0625 C 15.730469 37.617188 15.730469 37.1875 15.730469 36.75 C 15.191406 36.75 14.664063 36.75 14.121094 36.75 Z "/>
<path style=" fill:#2196F3;" d="M 11.640625 34.808594 C 11.640625 34.324219 11.640625 33.898438 11.640625 33.492188 C 11.101563 33.492188 10.574219 33.492188 10.042969 33.492188 C 10.042969 33.960938 10.042969 34.390625 10.042969 34.808594 C 10.578125 34.808594 11.097656 34.808594 11.640625 34.808594 Z "/>
<path style=" fill:#2196F3;" d="M 12.078125 14.9375 C 12.078125 15.378906 12.078125 15.804688 12.078125 16.257813 C 12.621094 16.257813 13.148438 16.257813 13.6875 16.257813 C 13.6875 15.824219 13.6875 15.394531 13.6875 14.9375 C 13.148438 14.9375 12.617188 14.9375 12.078125 14.9375 Z "/>
<path style=" fill:#2196F3;" d="M 10.039063 14.519531 C 10.585938 14.519531 11.105469 14.519531 11.636719 14.519531 C 11.636719 14.09375 11.636719 13.660156 11.636719 13.195313 C 11.09375 13.195313 10.570313 13.195313 10.039063 13.195313 C 10.039063 13.628906 10.039063 14.050781 10.039063 14.519531 Z "/>
<path style=" fill:#2196F3;" d="M 11.632813 19.59375 C 11.632813 19.144531 11.632813 18.710938 11.632813 18.257813 C 11.09375 18.257813 10.570313 18.257813 10.050781 18.257813 C 10.050781 18.707031 10.050781 19.140625 10.050781 19.59375 C 10.585938 19.59375 11.101563 19.59375 11.632813 19.59375 Z "/>
<path style=" fill:#2196F3;" d="M 13.691406 26.710938 C 13.140625 26.710938 12.609375 26.710938 12.070313 26.710938 C 12.070313 27.15625 12.070313 27.585938 12.070313 28.015625 C 12.617188 28.015625 13.148438 28.015625 13.691406 28.015625 C 13.691406 27.566406 13.691406 27.144531 13.691406 26.710938 Z "/>
<path style=" fill:#2196F3;" d="M 12.078125 11.578125 C 12.078125 12.003906 12.078125 12.4375 12.078125 12.898438 C 12.621094 12.898438 13.148438 12.898438 13.6875 12.898438 C 13.6875 12.46875 13.6875 12.039063 13.6875 11.578125 C 13.152344 11.578125 12.621094 11.578125 12.078125 11.578125 Z "/>
<path style=" fill:#2196F3;" d="M 10.050781 30.097656 C 10.050781 30.578125 10.050781 31.011719 10.050781 31.425781 C 10.59375 31.425781 11.113281 31.425781 11.636719 31.425781 C 11.636719 30.957031 11.636719 30.523438 11.636719 30.097656 C 11.101563 30.097656 10.582031 30.097656 10.050781 30.097656 Z "/>
<path style=" fill:#2196F3;" d="M 12.074219 38.097656 C 12.625 38.097656 13.152344 38.097656 13.683594 38.097656 C 13.683594 37.632813 13.683594 37.203125 13.683594 36.789063 C 13.140625 36.789063 12.613281 36.789063 12.074219 36.789063 C 12.074219 37.25 12.074219 37.679688 12.074219 38.097656 Z "/>
<path style=" fill:#2196F3;" d="M 13.691406 38.46875 C 13.140625 38.46875 12.609375 38.46875 12.078125 38.46875 C 12.078125 38.941406 12.078125 39.375 12.078125 39.785156 C 12.628906 39.785156 13.15625 39.785156 13.691406 39.785156 C 13.691406 39.320313 13.691406 38.894531 13.691406 38.46875 Z "/>
<path style=" fill:#2196F3;" d="M 12.074219 36.417969 C 12.617188 36.417969 13.152344 36.417969 13.679688 36.417969 C 13.679688 35.953125 13.679688 35.523438 13.679688 35.109375 C 13.136719 35.109375 12.609375 35.109375 12.074219 35.109375 C 12.074219 35.570313 12.074219 36 12.074219 36.417969 Z "/>
<path style=" fill:#2196F3;" d="M 15.730469 16.636719 C 15.183594 16.636719 14.652344 16.636719 14.121094 16.636719 C 14.121094 17.074219 14.121094 17.503906 14.121094 17.953125 C 14.660156 17.953125 15.191406 17.953125 15.730469 17.953125 C 15.730469 17.519531 15.730469 17.089844 15.730469 16.636719 Z "/>
<path style=" fill:#2196F3;" d="M 13.679688 17.9375 C 13.679688 17.488281 13.679688 17.0625 13.679688 16.613281 C 13.136719 16.613281 12.609375 16.613281 12.082031 16.613281 C 12.082031 17.058594 12.082031 17.492188 12.082031 17.9375 C 12.625 17.9375 13.144531 17.9375 13.679688 17.9375 Z "/>
<path style=" fill:#2196F3;" d="M 14.121094 23.34375 C 14.121094 23.792969 14.121094 24.21875 14.121094 24.652344 C 14.664063 24.652344 15.191406 24.652344 15.730469 24.652344 C 15.730469 24.210938 15.730469 23.785156 15.730469 23.34375 C 15.191406 23.34375 14.664063 23.34375 14.121094 23.34375 Z "/>
<path style=" fill:#2196F3;" d="M 16.167969 38.425781 C 16.167969 38.871094 16.167969 39.296875 16.167969 39.742188 C 16.714844 39.742188 17.242188 39.742188 17.769531 39.742188 C 17.769531 39.296875 17.769531 38.867188 17.769531 38.425781 C 17.234375 38.425781 16.710938 38.425781 16.167969 38.425781 Z "/>
<path style=" fill:#2196F3;" d="M 16.160156 9.5625 C 16.71875 9.5625 17.25 9.5625 17.769531 9.5625 C 17.769531 9.113281 17.769531 8.683594 17.769531 8.269531 C 17.222656 8.269531 16.691406 8.269531 16.160156 8.269531 C 16.160156 8.714844 16.160156 9.136719 16.160156 9.5625 Z "/>
<path style=" fill:#2196F3;" d="M 13.679688 21.292969 C 13.679688 20.851563 13.679688 20.417969 13.679688 19.976563 C 13.136719 19.976563 12.609375 19.976563 12.074219 19.976563 C 12.074219 20.421875 12.074219 20.851563 12.074219 21.292969 C 12.613281 21.292969 13.144531 21.292969 13.679688 21.292969 Z "/>
<path style=" fill:#2196F3;" d="M 14.121094 30.050781 C 14.121094 30.503906 14.121094 30.933594 14.121094 31.359375 C 14.667969 31.359375 15.195313 31.359375 15.726563 31.359375 C 15.726563 30.914063 15.726563 30.484375 15.726563 30.050781 C 15.1875 30.050781 14.664063 30.050781 14.121094 30.050781 Z "/>
<path style=" fill:#2196F3;" d="M 34.398438 6.058594 C 34.398438 5.507813 34.394531 5 34.40625 4.488281 C 34.40625 4.4375 34.484375 4.355469 34.539063 4.34375 C 35.015625 4.222656 35.5 4.117188 36.011719 4 C 36.011719 4.550781 36.015625 5.089844 36.007813 5.628906 C 36.007813 5.664063 35.949219 5.726563 35.910156 5.734375 C 35.421875 5.84375 34.933594 5.945313 34.398438 6.058594 Z "/>
<path style=" fill:#2196F3;" d="M 36.011719 44 C 35.492188 43.878906 34.992188 43.769531 34.5 43.648438 C 34.457031 43.636719 34.40625 43.546875 34.402344 43.496094 C 34.394531 42.992188 34.398438 42.488281 34.398438 41.949219 C 34.589844 41.988281 34.757813 42.019531 34.929688 42.054688 C 35.238281 42.117188 35.550781 42.179688 35.855469 42.253906 C 35.914063 42.269531 36.007813 42.339844 36.007813 42.386719 C 36.015625 42.917969 36.011719 43.449219 36.011719 44 Z "/>
<path style=" fill:#2196F3;" d="M 33.996094 6.140625 C 33.46875 6.242188 32.949219 6.339844 32.386719 6.445313 C 32.386719 6.078125 32.386719 5.730469 32.386719 5.378906 C 32.386719 4.800781 32.386719 4.800781 32.941406 4.683594 C 33.285156 4.609375 33.636719 4.539063 33.996094 4.464844 C 33.996094 5.019531 33.996094 5.558594 33.996094 6.140625 Z "/>
<path style=" fill:#2196F3;" d="M 32.386719 41.554688 C 32.945313 41.660156 33.464844 41.757813 33.996094 41.859375 C 33.996094 42.421875 33.996094 42.96875 33.996094 43.535156 C 33.484375 43.429688 32.984375 43.332031 32.484375 43.222656 C 32.445313 43.214844 32.394531 43.136719 32.390625 43.09375 C 32.386719 42.597656 32.386719 42.101563 32.386719 41.554688 Z "/>
<path style=" fill:#2196F3;" d="M 30.390625 6.785156 C 30.390625 6.261719 30.386719 5.765625 30.390625 5.273438 C 30.394531 5.230469 30.4375 5.160156 30.46875 5.152344 C 30.96875 5.058594 31.46875 4.972656 32 4.878906 C 32 5.40625 32.003906 5.910156 31.992188 6.410156 C 31.992188 6.457031 31.902344 6.53125 31.84375 6.539063 C 31.375 6.625 30.902344 6.699219 30.390625 6.785156 Z "/>
<path style=" fill:#2196F3;" d="M 29.992188 41.152344 C 29.992188 41.703125 29.992188 42.21875 29.992188 42.765625 C 29.457031 42.679688 28.933594 42.597656 28.394531 42.511719 C 28.394531 41.988281 28.394531 41.464844 28.394531 40.921875 C 28.925781 41 29.453125 41.074219 29.992188 41.152344 Z "/>
<path style=" fill:#2196F3;" d="M 24.3125 7.539063 C 24.3125 7.015625 24.3125 6.515625 24.3125 5.992188 C 24.84375 5.9375 25.378906 5.878906 25.945313 5.816406 C 25.945313 6.320313 25.945313 6.804688 25.941406 7.285156 C 25.9375 7.320313 25.878906 7.382813 25.839844 7.386719 C 25.335938 7.441406 24.832031 7.488281 24.3125 7.539063 Z "/>
<path style=" fill:#2196F3;" d="M 23.902344 41.964844 C 23.347656 41.917969 22.820313 41.875 22.28125 41.828125 C 22.28125 41.3125 22.28125 40.820313 22.28125 40.296875 C 22.660156 40.324219 23.027344 40.351563 23.394531 40.386719 C 23.902344 40.4375 23.902344 40.4375 23.902344 40.957031 C 23.902344 41.285156 23.902344 41.613281 23.902344 41.964844 Z "/>
<path style=" fill:#2196F3;" d="M 23.890625 6.03125 C 23.890625 6.558594 23.890625 7.058594 23.890625 7.578125 C 23.351563 7.617188 22.824219 7.660156 22.28125 7.699219 C 22.28125 7.183594 22.28125 6.691406 22.28125 6.171875 C 22.808594 6.128906 23.335938 6.082031 23.890625 6.03125 Z "/>
<path style=" fill:#2196F3;" d="M 26.347656 42.234375 C 26.347656 41.703125 26.347656 41.203125 26.347656 40.667969 C 26.886719 40.734375 27.414063 40.796875 27.953125 40.863281 C 27.953125 41.390625 27.953125 41.90625 27.953125 42.445313 C 27.414063 42.375 26.886719 42.304688 26.347656 42.234375 Z "/>
<path style=" fill:#2196F3;" d="M 27.953125 5.550781 C 27.953125 6.082031 27.953125 6.597656 27.953125 7.136719 C 27.425781 7.199219 26.898438 7.265625 26.355469 7.332031 C 26.355469 6.804688 26.355469 6.300781 26.355469 5.765625 C 26.878906 5.695313 27.40625 5.625 27.953125 5.550781 Z "/>
<path style=" fill:#2196F3;" d="M 20.246094 6.296875 C 20.789063 6.265625 21.3125 6.234375 21.855469 6.207031 C 21.855469 6.714844 21.855469 7.210938 21.855469 7.730469 C 21.324219 7.761719 20.796875 7.792969 20.246094 7.824219 C 20.246094 7.3125 20.246094 6.816406 20.246094 6.296875 Z "/>
<path style=" fill:#2196F3;" d="M 21.855469 40.269531 C 21.855469 40.785156 21.855469 41.277344 21.855469 41.792969 C 21.605469 41.78125 21.351563 41.769531 21.101563 41.757813 C 20.863281 41.742188 20.625 41.738281 20.386719 41.710938 C 20.328125 41.703125 20.230469 41.625 20.230469 41.574219 C 20.21875 41.121094 20.222656 40.667969 20.222656 40.183594 C 20.773438 40.210938 21.304688 40.238281 21.855469 40.269531 Z "/>
<path style=" fill:#2196F3;" d="M 16.164063 41.59375 C 16.164063 41.066406 16.164063 40.585938 16.164063 40.101563 C 16.707031 40.101563 17.234375 40.101563 17.773438 40.101563 C 17.773438 40.613281 17.773438 41.105469 17.773438 41.59375 C 17.234375 41.59375 16.707031 41.59375 16.164063 41.59375 Z "/>
<path style=" fill:#2196F3;" d="M 18.203125 41.644531 C 18.203125 41.113281 18.203125 40.628906 18.203125 40.148438 C 18.742188 40.148438 19.269531 40.148438 19.8125 40.148438 C 19.8125 40.667969 19.8125 41.152344 19.8125 41.644531 C 19.285156 41.644531 18.757813 41.644531 18.203125 41.644531 Z "/>
<path style=" fill:#2196F3;" d="M 17.773438 7.898438 C 17.238281 7.898438 16.714844 7.898438 16.171875 7.898438 C 16.171875 7.414063 16.171875 6.921875 16.171875 6.40625 C 16.703125 6.40625 17.230469 6.40625 17.773438 6.40625 C 17.773438 6.894531 17.773438 7.378906 17.773438 7.898438 Z "/>
<path style=" fill:#2196F3;" d="M 14.117188 7.898438 C 14.117188 7.390625 14.117188 6.90625 14.117188 6.402344 C 14.652344 6.402344 15.179688 6.402344 15.722656 6.402344 C 15.722656 6.910156 15.722656 7.402344 15.722656 7.898438 C 15.1875 7.898438 14.65625 7.898438 14.117188 7.898438 Z "/>
<path style=" fill:#2196F3;" d="M 36.007813 8.007813 C 36.007813 8.527344 36.007813 9.015625 36.007813 9.523438 C 35.480469 9.613281 34.960938 9.699219 34.417969 9.792969 C 34.417969 9.289063 34.417969 8.816406 34.417969 8.304688 C 34.929688 8.210938 35.457031 8.109375 36.007813 8.007813 Z "/>
<path style=" fill:#2196F3;" d="M 34.398438 38.203125 C 34.953125 38.296875 35.46875 38.382813 35.996094 38.472656 C 35.996094 38.972656 35.996094 39.460938 35.996094 39.988281 C 35.679688 39.929688 35.363281 39.878906 35.050781 39.816406 C 34.839844 39.773438 34.546875 39.792969 34.445313 39.660156 C 34.335938 39.511719 34.402344 39.226563 34.398438 39 C 34.394531 38.75 34.398438 38.496094 34.398438 38.203125 Z "/>
<path style=" fill:#2196F3;" d="M 37.996094 38.84375 C 37.996094 39.371094 37.996094 39.875 37.996094 40.402344 C 37.46875 40.289063 36.949219 40.183594 36.425781 40.074219 C 36.425781 39.566406 36.425781 39.074219 36.425781 38.554688 C 36.953125 38.648438 37.46875 38.746094 37.996094 38.84375 Z "/>
<path style=" fill:#2196F3;" d="M 36.429688 9.449219 C 36.429688 8.933594 36.429688 8.441406 36.429688 7.925781 C 36.945313 7.816406 37.464844 7.707031 37.996094 7.597656 C 37.996094 8.113281 37.996094 8.613281 37.996094 9.152344 C 37.484375 9.25 36.964844 9.347656 36.429688 9.449219 Z "/>
<path style=" fill:#2196F3;" d="M 37.992188 5.648438 C 37.992188 6.1875 37.992188 6.691406 37.992188 7.203125 C 37.472656 7.3125 36.960938 7.421875 36.417969 7.539063 C 36.417969 7.046875 36.414063 6.570313 36.421875 6.089844 C 36.421875 6.054688 36.480469 6 36.519531 5.988281 C 37.007813 5.871094 37.496094 5.761719 37.992188 5.648438 Z "/>
<path style=" fill:#2196F3;" d="M 32.398438 10.101563 C 32.398438 9.597656 32.398438 9.128906 32.398438 8.644531 C 32.925781 8.554688 33.449219 8.46875 33.992188 8.378906 C 33.992188 8.878906 33.992188 9.359375 33.992188 9.863281 C 33.46875 9.9375 32.945313 10.019531 32.398438 10.101563 Z "/>
<path style=" fill:#2196F3;" d="M 33.988281 39.617188 C 33.449219 39.527344 32.929688 39.445313 32.402344 39.355469 C 32.402344 38.871094 32.402344 38.394531 32.402344 37.898438 C 32.933594 37.980469 33.453125 38.058594 33.988281 38.136719 C 33.988281 38.625 33.988281 39.109375 33.988281 39.617188 Z "/>
<path style=" fill:#2196F3;" d="M 33.992188 41.480469 C 33.453125 41.382813 32.929688 41.285156 32.398438 41.183594 C 32.398438 40.699219 32.398438 40.226563 32.398438 39.726563 C 32.9375 39.820313 33.460938 39.90625 33.992188 39.996094 C 33.992188 40.496094 33.992188 40.976563 33.992188 41.480469 Z "/>
<path style=" fill:#2196F3;" d="M 33.996094 6.519531 C 33.996094 7.011719 33.996094 7.496094 33.996094 8 C 33.46875 8.089844 32.945313 8.179688 32.386719 8.273438 C 32.386719 7.800781 32.386719 7.355469 32.394531 6.910156 C 32.394531 6.871094 32.476563 6.804688 32.527344 6.796875 C 33.011719 6.695313 33.5 6.609375 33.996094 6.519531 Z "/>
<path style=" fill:#2196F3;" d="M 25.929688 40.269531 C 25.382813 40.214844 24.851563 40.164063 24.3125 40.113281 C 24.3125 39.660156 24.3125 39.222656 24.3125 38.75 C 24.847656 38.796875 25.382813 38.84375 25.929688 38.890625 C 25.929688 39.34375 25.929688 39.789063 25.929688 40.269531 Z "/>
<path style=" fill:#2196F3;" d="M 24.308594 38.398438 C 24.308594 37.9375 24.308594 37.507813 24.308594 37.035156 C 24.65625 37.0625 25 37.085938 25.339844 37.109375 C 25.386719 37.113281 25.433594 37.121094 25.480469 37.128906 C 25.945313 37.171875 25.949219 37.171875 25.945313 37.660156 C 25.945313 37.929688 25.945313 38.195313 25.941406 38.460938 C 25.941406 38.476563 25.933594 38.492188 25.917969 38.535156 C 25.394531 38.492188 24.859375 38.445313 24.308594 38.398438 Z "/>
<path style=" fill:#2196F3;" d="M 8.011719 11.347656 C 8.550781 11.378906 9.078125 11.410156 9.617188 11.4375 C 9.617188 11.890625 9.617188 12.328125 9.617188 12.796875 C 9.082031 12.765625 8.554688 12.738281 8.011719 12.707031 C 8.011719 12.25 8.011719 11.8125 8.011719 11.347656 Z "/>
<path style=" fill:#2196F3;" d="M 8.011719 38.367188 C 8.011719 37.898438 8.011719 37.460938 8.011719 37.003906 C 8.550781 36.96875 9.078125 36.9375 9.617188 36.902344 C 9.617188 37.359375 9.617188 37.792969 9.617188 38.253906 C 9.085938 38.289063 8.558594 38.328125 8.011719 38.367188 Z "/>
<path style=" fill:#2196F3;" d="M 8 14.808594 C 8.550781 14.808594 9.074219 14.808594 9.613281 14.808594 C 9.613281 15.285156 9.613281 15.730469 9.613281 16.136719 C 9.109375 16.136719 8.617188 16.140625 8.125 16.132813 C 8.085938 16.132813 8.007813 16.066406 8.007813 16.03125 C 7.996094 15.617188 8 15.203125 8 14.808594 Z "/>
<path style=" fill:#2196F3;" d="M 8.011719 17.855469 C 8.011719 17.371094 8.011719 16.933594 8.011719 16.507813 C 8.550781 16.507813 9.074219 16.507813 9.617188 16.507813 C 9.617188 16.980469 9.617188 17.425781 9.617188 17.855469 C 9.078125 17.855469 8.554688 17.855469 8.011719 17.855469 Z "/>
<path style=" fill:#2196F3;" d="M 9.621094 35.203125 C 9.621094 35.671875 9.621094 36.101563 9.621094 36.554688 C 9.085938 36.589844 8.558594 36.621094 8.015625 36.65625 C 8.015625 36.199219 8.015625 35.761719 8.015625 35.292969 C 8.542969 35.265625 9.070313 35.234375 9.621094 35.203125 Z "/>
<path style=" fill:#2196F3;" d="M 9.621094 19.914063 C 9.621094 20.382813 9.621094 20.8125 9.621094 21.261719 C 9.089844 21.261719 8.5625 21.261719 8.015625 21.261719 C 8.015625 20.800781 8.015625 20.359375 8.015625 19.914063 C 8.550781 19.914063 9.070313 19.914063 9.621094 19.914063 Z "/>
<path style=" fill:#2196F3;" d="M 9.621094 26.75 C 9.621094 27.1875 9.621094 27.609375 9.621094 28.070313 C 9.089844 28.070313 8.5625 28.070313 8.015625 28.070313 C 8.015625 27.652344 8.015625 27.210938 8.015625 26.75 C 8.542969 26.75 9.070313 26.75 9.621094 26.75 Z "/>
<path style=" fill:#2196F3;" d="M 8.011719 29.777344 C 8.011719 29.355469 8.011719 28.917969 8.011719 28.449219 C 8.546875 28.449219 9.074219 28.449219 9.617188 28.449219 C 9.617188 28.871094 9.617188 29.308594 9.617188 29.777344 C 9.082031 29.777344 8.554688 29.777344 8.011719 29.777344 Z "/>
<path style=" fill:#2196F3;" d="M 17.78125 9.9375 C 17.78125 10.375 17.78125 10.800781 17.78125 11.246094 C 17.246094 11.246094 16.71875 11.246094 16.171875 11.246094 C 16.171875 10.824219 16.171875 10.390625 16.171875 9.9375 C 16.699219 9.9375 17.230469 9.9375 17.78125 9.9375 Z "/>
<path style=" fill:#2196F3;" d="M 15.726563 9.933594 C 15.726563 10.394531 15.726563 10.820313 15.726563 11.253906 C 15.1875 11.253906 14.65625 11.253906 14.117188 11.253906 C 14.117188 10.804688 14.117188 10.378906 14.117188 9.933594 C 14.652344 9.933594 15.183594 9.933594 15.726563 9.933594 Z "/>
<path style=" fill:#2196F3;" d="M 14.121094 19.628906 C 14.121094 19.1875 14.121094 18.761719 14.121094 18.3125 C 14.652344 18.3125 15.179688 18.3125 15.726563 18.3125 C 15.726563 18.746094 15.726563 19.179688 15.726563 19.628906 C 15.191406 19.628906 14.664063 19.628906 14.121094 19.628906 Z "/>
<path style=" fill:#2196F3;" d="M 14.117188 29.683594 C 14.117188 29.246094 14.117188 28.820313 14.117188 28.371094 C 14.65625 28.371094 15.1875 28.371094 15.730469 28.371094 C 15.730469 28.804688 15.730469 29.234375 15.730469 29.683594 C 15.199219 29.683594 14.671875 29.683594 14.117188 29.683594 Z "/>
<path style=" fill:#2196F3;" d="M 13.6875 21.65625 C 13.6875 22.105469 13.6875 22.539063 13.6875 22.976563 C 13.148438 22.976563 12.617188 22.976563 12.074219 22.976563 C 12.074219 22.53125 12.074219 22.101563 12.074219 21.65625 C 12.609375 21.65625 13.140625 21.65625 13.6875 21.65625 Z "/>
<path style=" fill:#2196F3;" d="M 14.125 21.664063 C 14.65625 21.664063 15.1875 21.664063 15.730469 21.664063 C 15.730469 22.101563 15.730469 22.53125 15.730469 22.976563 C 15.203125 22.976563 14.675781 22.976563 14.125 22.976563 C 14.125 22.546875 14.125 22.113281 14.125 21.664063 Z "/>
<path style=" fill:#2196F3;" d="M 10.042969 21.277344 C 10.042969 20.824219 10.042969 20.394531 10.042969 19.953125 C 10.574219 19.953125 11.101563 19.953125 11.640625 19.953125 C 11.640625 20.40625 11.640625 20.839844 11.640625 21.277344 C 11.109375 21.277344 10.582031 21.277344 10.042969 21.277344 Z "/>
<path style=" fill:#2196F3;" d="M 13.683594 25.027344 C 13.683594 25.472656 13.683594 25.902344 13.683594 26.34375 C 13.140625 26.34375 12.609375 26.34375 12.070313 26.34375 C 12.070313 25.90625 12.070313 25.476563 12.070313 25.027344 C 12.605469 25.027344 13.136719 25.027344 13.683594 25.027344 Z "/>
<path style=" fill:#2196F3;" d="M 15.734375 25.023438 C 15.734375 25.46875 15.734375 25.894531 15.734375 26.335938 C 15.203125 26.335938 14.675781 26.335938 14.128906 26.335938 C 14.128906 25.90625 14.128906 25.472656 14.128906 25.023438 C 14.65625 25.023438 15.183594 25.023438 15.734375 25.023438 Z "/>
<path style=" fill:#2196F3;" d="M 11.644531 26.726563 C 11.644531 27.160156 11.644531 27.589844 11.644531 28.042969 C 11.109375 28.042969 10.585938 28.042969 10.042969 28.042969 C 10.042969 27.613281 10.042969 27.183594 10.042969 26.726563 C 10.566406 26.726563 11.09375 26.726563 11.644531 26.726563 Z "/>
<path style=" fill:#2196F3;" d="M 11.640625 24.671875 C 11.109375 24.671875 10.585938 24.671875 10.046875 24.671875 C 10.046875 24.230469 10.046875 23.796875 10.046875 23.34375 C 10.574219 23.34375 11.101563 23.34375 11.640625 23.34375 C 11.640625 23.785156 11.640625 24.222656 11.640625 24.671875 Z "/>
<path style=" fill:#2196F3;" d="M 10.042969 29.730469 C 10.042969 29.308594 10.042969 28.878906 10.042969 28.421875 C 10.570313 28.421875 11.097656 28.421875 11.640625 28.421875 C 11.640625 28.839844 11.640625 29.269531 11.640625 29.730469 C 11.109375 29.730469 10.582031 29.730469 10.042969 29.730469 Z "/>
<path style=" fill:#2196F3;" d="M 10.042969 38.230469 C 10.042969 37.773438 10.042969 37.34375 10.042969 36.882813 C 10.570313 36.855469 11.097656 36.832031 11.636719 36.808594 C 11.636719 37.265625 11.636719 37.695313 11.636719 38.152344 C 11.109375 38.179688 10.585938 38.203125 10.042969 38.230469 Z "/>
<path style=" fill:#2196F3;" d="M 13.6875 33.429688 C 13.6875 33.851563 13.6875 34.277344 13.6875 34.734375 C 13.15625 34.734375 12.628906 34.734375 12.078125 34.734375 C 12.078125 34.328125 12.078125 33.894531 12.078125 33.429688 C 12.605469 33.429688 13.136719 33.429688 13.6875 33.429688 Z "/>
<path style=" fill:#2196F3;" d="M 10.042969 12.835938 C 10.042969 12.351563 10.042969 11.921875 10.042969 11.503906 C 10.574219 11.503906 11.09375 11.503906 11.632813 11.503906 C 11.632813 11.972656 11.632813 12.410156 11.632813 12.835938 C 11.113281 12.835938 10.585938 12.835938 10.042969 12.835938 Z "/>
<path style=" fill:#2196F3;" d="M 12.074219 31.378906 C 12.074219 30.949219 12.074219 30.523438 12.074219 30.070313 C 12.613281 30.070313 13.140625 30.070313 13.683594 30.070313 C 13.683594 30.492188 13.683594 30.917969 13.683594 31.378906 C 13.152344 31.378906 12.625 31.378906 12.074219 31.378906 Z "/>
<path style=" fill:#2196F3;" d="M 11.640625 31.789063 C 11.640625 32.207031 11.640625 32.636719 11.640625 33.109375 C 11.113281 33.109375 10.585938 33.109375 10.046875 33.109375 C 10.046875 32.699219 10.046875 32.261719 10.046875 31.789063 C 10.574219 31.789063 11.101563 31.789063 11.640625 31.789063 Z "/>
<path style=" fill:#2196F3;" d="M 16.164063 38.066406 C 16.164063 37.617188 16.164063 37.191406 16.164063 36.75 C 16.699219 36.75 17.226563 36.75 17.769531 36.75 C 17.769531 37.191406 17.769531 37.621094 17.769531 38.066406 C 17.246094 38.066406 16.722656 38.066406 16.164063 38.066406 Z "/>
<path style=" fill:#2196F3;" d="M 14.121094 36.75 C 14.664063 36.75 15.191406 36.75 15.730469 36.75 C 15.730469 37.1875 15.730469 37.613281 15.730469 38.0625 C 15.195313 38.0625 14.667969 38.0625 14.121094 38.0625 C 14.121094 37.644531 14.121094 37.214844 14.121094 36.75 Z "/>
<path style=" fill:#2196F3;" d="M 11.640625 34.808594 C 11.101563 34.808594 10.578125 34.808594 10.042969 34.808594 C 10.042969 34.390625 10.042969 33.960938 10.042969 33.492188 C 10.570313 33.492188 11.101563 33.492188 11.640625 33.492188 C 11.640625 33.898438 11.640625 34.324219 11.640625 34.808594 Z "/>
<path style=" fill:#2196F3;" d="M 12.078125 14.9375 C 12.617188 14.9375 13.148438 14.9375 13.6875 14.9375 C 13.6875 15.394531 13.6875 15.824219 13.6875 16.257813 C 13.148438 16.257813 12.621094 16.257813 12.078125 16.257813 C 12.078125 15.808594 12.078125 15.378906 12.078125 14.9375 Z "/>
<path style=" fill:#2196F3;" d="M 10.039063 14.519531 C 10.039063 14.050781 10.039063 13.628906 10.039063 13.195313 C 10.570313 13.195313 11.09375 13.195313 11.636719 13.195313 C 11.636719 13.660156 11.636719 14.09375 11.636719 14.519531 C 11.105469 14.519531 10.585938 14.519531 10.039063 14.519531 Z "/>
<path style=" fill:#2196F3;" d="M 11.632813 19.59375 C 11.101563 19.59375 10.585938 19.59375 10.050781 19.59375 C 10.050781 19.140625 10.050781 18.707031 10.050781 18.257813 C 10.570313 18.257813 11.09375 18.257813 11.632813 18.257813 C 11.632813 18.710938 11.632813 19.144531 11.632813 19.59375 Z "/>
<path style=" fill:#2196F3;" d="M 13.691406 26.710938 C 13.691406 27.144531 13.691406 27.566406 13.691406 28.015625 C 13.152344 28.015625 12.617188 28.015625 12.070313 28.015625 C 12.070313 27.585938 12.070313 27.15625 12.070313 26.710938 C 12.609375 26.710938 13.136719 26.710938 13.691406 26.710938 Z "/>
<path style=" fill:#2196F3;" d="M 12.078125 11.578125 C 12.621094 11.578125 13.152344 11.578125 13.6875 11.578125 C 13.6875 12.039063 13.6875 12.46875 13.6875 12.898438 C 13.148438 12.898438 12.621094 12.898438 12.078125 12.898438 C 12.078125 12.4375 12.078125 12.003906 12.078125 11.578125 Z "/>
<path style=" fill:#2196F3;" d="M 10.050781 30.097656 C 10.582031 30.097656 11.101563 30.097656 11.636719 30.097656 C 11.636719 30.523438 11.636719 30.957031 11.636719 31.425781 C 11.113281 31.425781 10.59375 31.425781 10.050781 31.425781 C 10.050781 31.011719 10.050781 30.574219 10.050781 30.097656 Z "/>
<path style=" fill:#2196F3;" d="M 12.074219 38.097656 C 12.074219 37.679688 12.074219 37.25 12.074219 36.789063 C 12.613281 36.789063 13.140625 36.789063 13.683594 36.789063 C 13.683594 37.203125 13.683594 37.632813 13.683594 38.097656 C 13.152344 38.097656 12.625 38.097656 12.074219 38.097656 Z "/>
<path style=" fill:#2196F3;" d="M 13.691406 38.46875 C 13.691406 38.894531 13.691406 39.320313 13.691406 39.785156 C 13.15625 39.785156 12.628906 39.785156 12.078125 39.785156 C 12.078125 39.375 12.078125 38.941406 12.078125 38.46875 C 12.609375 38.46875 13.140625 38.46875 13.691406 38.46875 Z "/>
<path style=" fill:#2196F3;" d="M 12.074219 36.417969 C 12.074219 36 12.074219 35.570313 12.074219 35.109375 C 12.609375 35.109375 13.136719 35.109375 13.679688 35.109375 C 13.679688 35.523438 13.679688 35.953125 13.679688 36.417969 C 13.152344 36.417969 12.617188 36.417969 12.074219 36.417969 Z "/>
<path style=" fill:#2196F3;" d="M 15.730469 16.636719 C 15.730469 17.089844 15.730469 17.519531 15.730469 17.953125 C 15.191406 17.953125 14.660156 17.953125 14.121094 17.953125 C 14.121094 17.503906 14.121094 17.074219 14.121094 16.636719 C 14.652344 16.636719 15.183594 16.636719 15.730469 16.636719 Z "/>
<path style=" fill:#2196F3;" d="M 13.679688 17.9375 C 13.148438 17.9375 12.625 17.9375 12.082031 17.9375 C 12.082031 17.492188 12.082031 17.058594 12.082031 16.613281 C 12.605469 16.613281 13.136719 16.613281 13.679688 16.613281 C 13.679688 17.0625 13.679688 17.488281 13.679688 17.9375 Z "/>
<path style=" fill:#2196F3;" d="M 14.121094 23.34375 C 14.664063 23.34375 15.191406 23.34375 15.730469 23.34375 C 15.730469 23.785156 15.730469 24.210938 15.730469 24.652344 C 15.191406 24.652344 14.664063 24.652344 14.121094 24.652344 C 14.121094 24.21875 14.121094 23.789063 14.121094 23.34375 Z "/>
<path style=" fill:#2196F3;" d="M 16.167969 38.425781 C 16.710938 38.425781 17.230469 38.425781 17.769531 38.425781 C 17.769531 38.867188 17.769531 39.296875 17.769531 39.742188 C 17.242188 39.742188 16.714844 39.742188 16.167969 39.742188 C 16.167969 39.296875 16.167969 38.871094 16.167969 38.425781 Z "/>
<path style=" fill:#2196F3;" d="M 16.160156 9.5625 C 16.160156 9.136719 16.160156 8.714844 16.160156 8.269531 C 16.691406 8.269531 17.21875 8.269531 17.769531 8.269531 C 17.769531 8.683594 17.769531 9.113281 17.769531 9.5625 C 17.25 9.5625 16.71875 9.5625 16.160156 9.5625 Z "/>
<path style=" fill:#2196F3;" d="M 13.679688 21.292969 C 13.140625 21.292969 12.613281 21.292969 12.074219 21.292969 C 12.074219 20.851563 12.074219 20.421875 12.074219 19.976563 C 12.609375 19.976563 13.136719 19.976563 13.679688 19.976563 C 13.679688 20.417969 13.679688 20.851563 13.679688 21.292969 Z "/>
<path style=" fill:#2196F3;" d="M 14.121094 30.050781 C 14.664063 30.050781 15.1875 30.050781 15.726563 30.050781 C 15.726563 30.484375 15.726563 30.914063 15.726563 31.359375 C 15.195313 31.359375 14.667969 31.359375 14.121094 31.359375 C 14.121094 30.933594 14.121094 30.503906 14.121094 30.050781 Z "/>
<path style=" fill:#2196F3;" d="M 39.9375 30.085938 C 39.839844 29.074219 39.574219 28.113281 39.070313 27.222656 C 38.910156 26.945313 38.746094 26.78125 38.40625 26.816406 C 38.125 26.84375 37.835938 26.796875 37.550781 26.78125 C 37.179688 26.765625 36.8125 26.75 36.433594 26.730469 C 36.433594 26.171875 36.421875 25.636719 36.4375 25.101563 C 36.441406 24.933594 36.386719 24.855469 36.238281 24.8125 C 35.605469 24.621094 34.972656 24.414063 34.328125 24.238281 C 33.960938 24.140625 33.578125 24.09375 33.191406 24.023438 C 33.191406 23.832031 33.191406 23.660156 33.191406 23.484375 C 33.191406 22.867188 33.191406 22.871094 33.773438 22.664063 C 34.785156 22.308594 35.785156 21.929688 36.640625 21.25 C 37.597656 20.488281 38.289063 19.527344 38.695313 18.363281 C 39.0625 17.3125 39.09375 16.21875 39.015625 15.121094 C 38.957031 14.277344 38.765625 13.464844 38.375 12.710938 C 38.070313 12.121094 37.628906 11.644531 37.070313 11.296875 C 35.882813 10.566406 34.574219 10.367188 33.210938 10.445313 C 32.8125 10.46875 32.414063 10.496094 32.011719 10.519531 C 32.003906 10.382813 31.996094 10.269531 31.988281 10.152344 C 31.457031 10.21875 30.949219 10.28125 30.429688 10.347656 C 30.429688 9.859375 30.429688 9.414063 30.429688 8.953125 C 30.957031 8.875 31.472656 8.796875 31.992188 8.71875 C 31.992188 8.097656 31.992188 7.5 31.992188 6.910156 C 30.105469 7.175781 28.226563 7.441406 26.332031 7.710938 C 26.332031 8.855469 26.332031 9.992188 26.332031 11.175781 C 25.148438 11.226563 23.976563 11.28125 22.789063 11.335938 C 22.789063 10.859375 22.789063 10.414063 22.789063 9.953125 C 23.300781 9.925781 23.796875 9.894531 24.289063 9.867188 C 24.289063 9.183594 24.289063 8.539063 24.289063 7.917969 C 22.25 8.03125 20.230469 8.144531 18.1875 8.261719 C 18.1875 9.367188 18.1875 10.464844 18.1875 11.585938 C 16.820313 11.585938 15.476563 11.585938 14.121094 11.585938 C 14.121094 12.15625 14.121094 12.703125 14.121094 13.289063 C 14.65625 13.289063 15.175781 13.289063 15.703125 13.289063 C 15.703125 13.761719 15.703125 14.1875 15.703125 14.609375 C 15.160156 14.609375 14.636719 14.609375 14.125 14.609375 C 14.125 15.167969 14.125 15.714844 14.125 16.285156 C 14.804688 16.285156 15.464844 16.285156 16.160156 16.285156 C 16.160156 18.089844 16.160156 19.871094 16.160156 21.675781 C 16.699219 21.675781 17.207031 21.675781 17.714844 21.675781 C 17.714844 22.117188 17.714844 22.535156 17.714844 22.980469 C 17.191406 22.980469 16.683594 22.980469 16.164063 22.980469 C 16.164063 23.671875 16.164063 24.335938 16.164063 25.03125 C 16.691406 25.03125 17.203125 25.03125 17.722656 25.03125 C 17.722656 25.472656 17.722656 25.890625 17.722656 26.335938 C 17.199219 26.335938 16.683594 26.335938 16.144531 26.335938 C 16.144531 28.140625 16.144531 29.917969 16.144531 31.714844 C 15.453125 31.714844 14.792969 31.714844 14.125 31.714844 C 14.125 32.859375 14.125 33.984375 14.125 35.105469 C 14.648438 35.105469 15.15625 35.105469 15.695313 35.105469 C 15.695313 35.535156 15.695313 35.953125 15.695313 36.40625 C 16.542969 36.40625 17.363281 36.40625 18.207031 36.40625 C 18.207031 37.546875 18.207031 38.652344 18.207031 39.75 C 19.585938 39.8125 20.9375 39.875 22.320313 39.933594 C 22.320313 39.503906 22.320313 39.085938 22.320313 38.648438 C 22.859375 38.695313 23.367188 38.738281 23.898438 38.785156 C 23.898438 38.066406 23.898438 37.371094 23.898438 36.644531 C 24.726563 36.710938 25.523438 36.773438 26.347656 36.835938 C 26.347656 38.007813 26.347656 39.152344 26.347656 40.28125 C 28.242188 40.550781 30.113281 40.8125 32.007813 41.082031 C 32.007813 39.878906 32.007813 38.6875 32.007813 37.46875 C 32.347656 37.492188 32.648438 37.515625 32.949219 37.535156 C 33.988281 37.609375 35.015625 37.597656 36.035156 37.320313 C 37.910156 36.808594 39.183594 35.675781 39.699219 33.730469 C 40.015625 32.535156 40.058594 31.316406 39.9375 30.085938 Z M 36.449219 13.410156 C 36.949219 13.335938 37.457031 13.261719 37.992188 13.179688 C 37.992188 13.707031 37.992188 14.21875 37.992188 14.753906 C 37.488281 14.816406 36.976563 14.878906 36.449219 14.945313 C 36.449219 14.433594 36.449219 13.9375 36.449219 13.410156 Z M 36.441406 17.339844 C 36.957031 17.289063 37.464844 17.242188 37.988281 17.191406 C 37.988281 17.710938 37.988281 18.226563 37.988281 18.765625 C 37.480469 18.800781 36.96875 18.835938 36.441406 18.871094 C 36.441406 18.339844 36.441406 17.84375 36.441406 17.339844 Z M 20.265625 13.148438 C 20.804688 13.121094 21.324219 13.097656 21.855469 13.070313 C 21.855469 13.527344 21.855469 13.953125 21.855469 14.40625 C 21.324219 14.429688 20.804688 14.453125 20.265625 14.480469 C 20.265625 14.03125 20.265625 13.601563 20.265625 13.148438 Z M 21.230469 18.324219 C 21.230469 18.746094 21.230469 19.167969 21.230469 19.605469 C 20.714844 19.605469 20.195313 19.605469 19.65625 19.605469 C 19.65625 19.1875 19.65625 18.769531 19.65625 18.324219 C 20.183594 18.324219 20.699219 18.324219 21.230469 18.324219 Z M 18.238281 13.210938 C 18.765625 13.210938 19.28125 13.210938 19.808594 13.210938 C 19.808594 13.617188 19.808594 14.042969 19.808594 14.507813 C 19.285156 14.507813 18.769531 14.507813 18.238281 14.507813 C 18.238281 14.101563 18.238281 13.675781 18.238281 13.210938 Z M 17.375 17.9375 C 17.375 17.503906 17.375 17.082031 17.375 16.648438 C 17.898438 16.648438 18.421875 16.648438 18.957031 16.648438 C 18.957031 17.085938 18.957031 17.503906 18.957031 17.9375 C 18.417969 17.9375 17.902344 17.9375 17.375 17.9375 Z M 17.777344 34.734375 C 17.25 34.734375 16.730469 34.734375 16.195313 34.734375 C 16.195313 34.320313 16.195313 33.890625 16.195313 33.4375 C 16.71875 33.4375 17.234375 33.4375 17.777344 33.4375 C 17.777344 33.859375 17.777344 34.277344 17.777344 34.734375 Z M 19.410156 31.351563 C 18.875 31.351563 18.355469 31.351563 17.820313 31.351563 C 17.820313 30.933594 17.820313 30.511719 17.820313 30.070313 C 18.34375 30.070313 18.863281 30.070313 19.410156 30.070313 C 19.410156 30.496094 19.410156 30.914063 19.410156 31.351563 Z M 19.410156 29.671875 C 18.878906 29.671875 18.359375 29.671875 17.820313 29.671875 C 17.820313 29.253906 17.820313 28.832031 17.820313 28.386719 C 18.347656 28.386719 18.867188 28.386719 19.410156 28.386719 C 19.410156 28.816406 19.410156 29.234375 19.410156 29.671875 Z M 19.460938 23.347656 C 19.980469 23.347656 20.503906 23.347656 21.035156 23.347656 C 21.035156 23.777344 21.035156 24.207031 21.035156 24.648438 C 20.515625 24.648438 20 24.648438 19.460938 24.648438 C 19.460938 24.214844 19.460938 23.789063 19.460938 23.347656 Z M 21.863281 38.054688 C 21.335938 38.054688 20.808594 38.054688 20.269531 38.054688 C 20.269531 37.621094 20.269531 37.207031 20.269531 36.773438 C 20.796875 36.773438 21.320313 36.773438 21.863281 36.773438 C 21.863281 37.199219 21.863281 37.621094 21.863281 38.054688 Z M 23.242188 15.5 C 23.378906 15.492188 27.65625 15.277344 28.175781 15.261719 C 31.511719 15.175781 31.421875 16.636719 31.445313 17.695313 C 31.492188 19.644531 30.691406 21.398438 26.675781 21.714844 C 26.539063 21.722656 23.289063 21.863281 23.242188 21.863281 C 23.242188 19.734375 23.242188 17.628906 23.242188 15.5 Z M 25.980469 34.929688 C 25.71875 34.914063 24.671875 34.867188 24.40625 34.855469 C 24.40625 34.417969 24.40625 33.980469 24.40625 33.570313 C 24.925781 33.570313 25.445313 33.570313 25.980469 33.570313 C 25.980469 34.039063 25.980469 34.46875 25.980469 34.929688 Z M 30.042969 35.222656 C 29.652344 35.191406 28.601563 35.109375 28.46875 35.097656 C 28.46875 34.648438 28.46875 34.207031 28.46875 33.738281 C 28.867188 33.765625 29.257813 33.792969 29.648438 33.820313 C 29.78125 33.832031 29.910156 33.839844 30.042969 33.847656 C 30.042969 34.308594 30.042969 34.75 30.042969 35.222656 Z M 32.238281 30.984375 C 32.140625 31.355469 31.867188 32.746094 28.644531 32.742188 C 27.855469 32.742188 23.355469 32.554688 23.238281 32.554688 C 23.238281 30.40625 23.238281 28.3125 23.238281 26.191406 C 23.339844 26.191406 26.199219 26.253906 26.675781 26.277344 C 31.699219 26.550781 31.820313 27.535156 32.328125 29.367188 C 32.476563 29.894531 32.378906 30.453125 32.238281 30.984375 Z M 37.992188 32.808594 C 37.476563 32.75 36.972656 32.6875 36.449219 32.628906 C 36.449219 32.121094 36.449219 31.625 36.449219 31.089844 C 36.957031 31.140625 37.46875 31.1875 37.992188 31.238281 C 37.992188 31.777344 37.992188 32.285156 37.992188 32.808594 Z "/>
</g>
</svg>
