<?xml version="1.0" standalone="no"?>
<!DOCTYPE svg PUBLIC "-//W3C//DTD SVG 20010904//EN"
 "http://www.w3.org/TR/2001/REC-SVG-20010904/DTD/svg10.dtd">
<svg version="1.0" xmlns="http://www.w3.org/2000/svg"
 width="146.000000pt" height="57.000000pt" viewBox="0 0 146.000000 57.000000"
 preserveAspectRatio="xMidYMid meet">

<g transform="translate(0.000000,57.000000) scale(0.100000,-0.100000)"
fill="#000000" stroke="none">
<path d="M814 556 c-3 -8 -4 -27 -2 -43 3 -24 8 -28 40 -31 45 -4 64 21 48 62
-8 21 -16 26 -45 26 -22 0 -38 -6 -41 -14z"/>
<path d="M558 416 c-22 -8 -40 -10 -46 -4 -5 5 -36 8 -68 6 -56 -3 -59 -4 -62
-30 -3 -24 0 -28 22 -28 l26 0 0 -125 0 -125 50 0 50 0 0 115 c0 114 0 115 25
121 14 3 36 3 50 0 25 -6 25 -8 25 -104 0 -135 16 -154 109 -136 26 6 31 11
31 35 0 22 -5 29 -20 29 -19 0 -20 7 -20 90 0 49 -5 101 -12 115 -23 51 -87
67 -160 41z"/>
<path d="M0 390 c0 -23 4 -30 20 -30 19 0 20 -7 20 -95 0 -104 10 -137 47
-154 31 -14 98 -14 125 0 14 8 28 7 49 -1 18 -8 46 -10 74 -6 42 7 45 9 45 37
0 22 -5 29 -20 29 -19 0 -20 7 -20 106 0 137 -4 144 -80 144 -60 0 -60 0 -60
-30 0 -23 4 -30 20 -30 19 0 20 -7 20 -90 l0 -90 -43 0 c-24 0 -48 5 -55 12
-8 8 -12 48 -12 114 0 115 1 114 -81 114 -48 0 -49 -1 -49 -30z"/>
<path d="M780 390 c0 -23 4 -30 20 -30 18 0 20 -8 22 -127 l3 -128 48 -3 47
-3 0 148 c0 103 -4 153 -12 161 -7 7 -38 12 -70 12 -58 0 -58 0 -58 -30z"/>
<path d="M970 385 c0 -28 4 -35 20 -35 19 0 20 -7 20 -125 l0 -125 45 0 45 0
0 45 c0 40 2 45 23 45 18 0 33 -17 73 -88 l50 -87 62 -3 62 -3 0 31 c0 25 -4
30 -24 30 -18 0 -32 15 -64 67 -41 67 -41 68 -20 79 45 24 61 91 33 143 -23
45 -77 61 -210 61 l-115 0 0 -35z m231 -41 c13 -8 11 -58 -3 -72 -7 -7 -31
-12 -55 -12 l-43 0 0 51 0 52 46 -7 c25 -3 50 -8 55 -12z"/>
</g>
</svg>
